<?xml version="1.0" encoding="utf-8"?>
<!-- Generator: Adobe Illustrator 25.2.3, SVG Export Plug-In . SVG Version: 6.00 Build 0)  -->
<svg version="1.1" id="圖層_1" xmlns="http://www.w3.org/2000/svg" xmlns:xlink="http://www.w3.org/1999/xlink" x="0px" y="0px"
	 viewBox="0 0 78.41 50" style="enable-background:new 0 0 78.41 50;" xml:space="preserve">
<style type="text/css">
	.st0{clip-path:url(#SVGID_2_);fill:#009E96;}
	.st1{clip-path:url(#SVGID_2_);}
	.st2{clip-path:url(#SVGID_4_);fill:#FFFFFF;}
	.st3{clip-path:url(#SVGID_6_);fill:#009E96;}
	.st4{clip-path:url(#SVGID_6_);}
	.st5{clip-path:url(#SVGID_8_);fill:#FFFFFF;}
	.st6{clip-path:url(#SVGID_10_);fill:#009E96;}
	.st7{clip-path:url(#SVGID_10_);}
	.st8{clip-path:url(#SVGID_12_);fill:#FFFFFF;}
	.st9{clip-path:url(#SVGID_14_);fill:#009E96;}
	.st10{clip-path:url(#SVGID_14_);}
	.st11{clip-path:url(#SVGID_16_);fill:#FFFFFF;}
	.st12{clip-path:url(#SVGID_18_);fill:#009E96;}
	.st13{clip-path:url(#SVGID_18_);}
	.st14{clip-path:url(#SVGID_20_);fill:#FFFFFF;}
	.st15{fill:#FFFFFF;}
</style>
<g id="圖稿_1_2_">
	<g>
		<defs>
			<rect id="SVGID_9_" x="0" width="78.41" height="50"/>
		</defs>
		<clipPath id="SVGID_2_">
			<use xlink:href="#SVGID_9_"  style="overflow:visible;"/>
		</clipPath>
		<rect x="2.02" y="2.02" class="st0" width="74.37" height="45.97"/>
		<g class="st1">
			<defs>
				<rect id="SVGID_11_" x="0" y="0" width="78.41" height="50"/>
			</defs>
			<clipPath id="SVGID_4_">
				<use xlink:href="#SVGID_11_"  style="overflow:visible;"/>
			</clipPath>
			<path class="st2" d="M7.74,10.27h4.34l4.06,6.9h0.13c-0.18-1.03-0.38-2.11-0.38-3.17v-3.73h4.33l-0.01,12.45h-4.32l-3.98-6.53
				h-0.13c0.14,0.86,0.28,1.67,0.28,2.49v4.04H7.74V10.27z"/>
			<rect x="22.23" y="10.27" class="st2" width="4.53" height="12.45"/>
			<polygon class="st2" points="27.99,10.27 37.51,10.27 37.51,14.33 35,14.21 35,22.72 30.48,22.72 30.48,14.21 27.99,14.33 			"/>
			<path class="st2" d="M52.01,16.54c0,4-3.09,6.39-6.88,6.39c-3.8,0-6.88-2.39-6.88-6.39c0-3.91,3.1-6.45,6.88-6.45
				C48.9,10.08,52.01,12.62,52.01,16.54 M42.8,16.6c0,1.42,0.96,2.39,2.33,2.39c1.37,0,2.33-0.97,2.33-2.39
				c0-1.32-0.89-2.43-2.33-2.43C43.69,14.18,42.8,15.28,42.8,16.6"/>
			<path class="st2" d="M53.61,10.27h5.47c2.8,0,5.19,1.19,5.19,4.33c0,1.88-0.73,2.67-2.41,3.24v0.1c0.23,0.18,0.51,0.39,0.75,0.75
				l2.71,4.04H60.1l-1.98-4h-0.08v4h-4.43V10.27z M58.03,15.8h0.32c0.74,0,1.48-0.12,1.48-1.04c0-0.96-0.67-1.07-1.45-1.07h-0.35
				V15.8z"/>
			<rect x="66.14" y="10.27" class="st2" width="4.53" height="12.45"/>
			<path class="st2" d="M9.55,31.79H8.04v-3.7h4.62v-0.82h2.11v0.82h4.67v3.7h-1.52v5.45h1.81v2.05H7.75v-2.05h1.8V31.79z
				 M17.31,29.93h-7.18v0.56h7.18V29.93z M11.6,32.8h4.21v-0.6H11.6V32.8z M11.6,35.01h4.21V34.4H11.6V35.01z M11.6,37.24h4.21V36.6
				H11.6V37.24z"/>
			<path class="st2" d="M20.21,29.25c0.89-0.59,1.35-1.12,1.88-2.07l1.94,0.6c-0.41,0.87-1.59,2.71-3.01,3.65L20.21,29.25z
				 M24.46,31.22c-0.32,0.65-0.68,1.28-1.1,1.88v6.54h-2.07v-4.17c-0.19,0.17-0.28,0.23-0.53,0.38l-0.52-2.72
				c1.15-0.81,2.14-2.28,2.47-2.88l1.75,0.82v-3.44h7.37v4.61h-7.37V31.22z M25.06,36.39h-1.28v-1.77h5.29v-0.43h-4.96v-1.6h8.11
				v1.6h-1.05v0.43h1.36v1.77h-1.36v2.06c0,0.7-0.14,1.19-1.31,1.19h-2.11l-0.34-1.88h1.35c0.29,0,0.32-0.05,0.32-0.39v-0.98h-2.8
				c0.46,0.42,0.8,0.85,1.17,1.33l-1.6,1.29c-0.44-0.76-1.34-1.72-1.56-1.95L25.06,36.39z M26.42,29.46h3.43v-0.51h-3.43V29.46z
				 M26.42,31.04h3.43v-0.52h-3.43V31.04z"/>
			<path class="st2" d="M35.53,29.55c-0.48,0.01-1.56,0.05-1.98,0.07l-0.24-1.97c1.79,0,4.08-0.08,5.71-0.52l0.57,1.94
				c-0.53,0.13-0.91,0.21-2.04,0.33v1.15h1.9v1.99h-1.73c0.89,1.76,1.43,2.31,1.83,2.71l-1.07,1.81c-0.28-0.4-0.53-0.76-0.94-1.6
				v4.21h-2.02v-4.05c-0.61,1.19-1.33,2.03-1.76,2.53l-0.7-2.7c1.37-1.13,2.22-2.79,2.27-2.91h-2.09v-1.99h2.28V29.55z M42.02,36.63
				h-2.12v-8.42h2.12V36.63z M44.93,27.22v10.85c0,1.2-0.29,1.59-1.69,1.59h-2.37l-0.37-2.28h1.97c0.36,0,0.37-0.11,0.37-0.35v-9.81
				H44.93z"/>
			<path class="st2" d="M57.86,33.3c-0.29,0.3-0.83,0.87-2.13,1.79c0.45,0.79,1.07,1.62,2.31,2.66l-1.65,1.58
				c-2.87-2.76-3.34-6.42-3.45-7.37H52.7c-0.2,0.23-0.31,0.36-0.75,0.68c0.39,0.43,1.74,1.89,1.74,4.33c0,2.18-1.09,2.68-1.84,2.68
				H49.7l-0.29-1.41c-1.33,0.6-2.41,0.87-2.96,1.02l-0.71-1.84c2.69-0.46,4.73-1.33,5.89-2.05c-0.03-0.12-0.06-0.23-0.14-0.47
				c-0.93,0.57-2.7,1.41-4.71,1.82l-0.71-1.65c2.46-0.31,3.96-0.9,4.73-1.3c-0.15-0.18-0.2-0.25-0.29-0.35
				c-0.32,0.14-1.65,0.74-3.81,1.08l-0.65-1.71c1.19-0.06,2.93-0.26,3.91-0.83h-2.35v-0.7h-1.31v-3.15h4.61v-0.81H53v0.81h4.61v3.15
				h-1.36v0.7h-1.6c0.11,0.69,0.21,1.06,0.3,1.37c0.2-0.14,1-0.73,1.62-1.49L57.86,33.3z M55.59,29.82h-7.25v0.56h7.25V29.82z
				 M51.19,37.94c0.38,0,0.64-0.09,0.62-1.11c-0.27,0.2-0.84,0.63-1.8,1.11H51.19z"/>
			<path class="st2" d="M61.47,34.16c-0.08,1.92-0.41,3.83-1.34,5.5l-1.71-1.72c0.42-0.8,1.04-1.98,1.04-6.07v-4.26h10.81v4.08
				h-3.39v0.63h3.78v1.85h-3.78v0.61h3.07v4.9h-2.08v-0.47h-4.09v0.47h-2.03v-4.9h3.01v-0.61H61.47z M64.76,31.69H61.5v0.63h3.26
				V31.69z M61.51,30.07h6.67v-0.7h-6.67V30.07z M63.78,37.41h4.09v-0.95h-4.09V37.41z"/>
		</g>
	</g>
</g>
</svg>
